<?xml version="1.0" standalone="no"?><!DOCTYPE svg PUBLIC "-//W3C//DTD SVG 1.1//EN" "http://www.w3.org/Graphics/SVG/1.1/DTD/svg11.dtd"><svg t="1609037568772" class="icon" viewBox="0 0 1024 1024" version="1.1" xmlns="http://www.w3.org/2000/svg" p-id="4510" xmlns:xlink="http://www.w3.org/1999/xlink" width="200" height="200"><defs><style type="text/css"></style></defs><path d="M376.948619 309.068976 310.193532 99.847929C293.504761 47.47144 258.372988 59.770178 258.372988 59.770178 124.341277 44.289902 63.654824 197.193172 63.654824 197.193172 0.171096 525.317881 540.422758 1030.89585 815.929754 950.597895 974.425702 883.785816 958.922196 761.320741 958.922196 761.320741 959.680775 708.801799 919.001907 697.6902 919.001907 697.6902L686.54434 642.939436 597.600753 732.022199C359.833132 648.162831 276.152203 409.975632 276.152203 409.975632L376.948619 309.068976ZM345.36407 422.508544C347.713009 427.318009 397.629381 512.015067 428.210673 546.686947 480.198597 605.628884 584.56497 662.261906 584.56497 662.261906L645.13615 601.595933C659.468902 587.24077 680.214031 581.333051 699.95915 585.98362L934.420451 641.243838C947.662087 644.86084 963.248216 652.454181 978.473487 666.389007 1003.392731 689.196237 1018.009688 722.058562 1017.430396 762.165833 1017.430396 762.165833 1007.443471 861.318671 964.769412 913.95546 934.816709 950.900941 834.46313 1006.145156 832.302811 1006.774799 505.565301 1102.004136-63.718839 547.494181 6.205879 186.078267 6.898132 182.500176 35.098712 121.920541 61.298688 90.47514 113.345799 28.007804 181.801808-7.976843 265.086596 1.64232 265.086596 1.64232 299.19665 0.749275 323.29058 18.497068 342.876101 32.923941 357.150896 54.480457 365.939039 82.061488L432.694155 291.282534C439.345123 312.127693 433.810461 334.941915 418.347067 350.422192 418.347067 350.422192 341.820416 415.25286 345.36407 422.508544Z" p-id="4511" fill="#ffb6c1"></path></svg>