<?xml version="1.0" standalone="no"?><!DOCTYPE svg PUBLIC "-//W3C//DTD SVG 1.1//EN" "http://www.w3.org/Graphics/SVG/1.1/DTD/svg11.dtd"><svg t="1606973852614" class="icon" viewBox="0 0 1024 1024" version="1.1" xmlns="http://www.w3.org/2000/svg" p-id="1535" xmlns:xlink="http://www.w3.org/1999/xlink" width="200" height="200"><defs><style type="text/css"></style></defs><path d="M853.333333 1024H170.666667a42.666667 42.666667 0 0 1-42.666667-42.666667V384a42.666667 42.666667 0 0 1 42.666667-42.666667h85.333333v-85.333333a256 256 0 0 1 512 0v85.333333h85.333333a42.666667 42.666667 0 0 1 42.666667 42.666667v597.333333a42.666667 42.666667 0 0 1-42.666667 42.666667z m-128-768a213.333333 213.333333 0 0 0-426.666666 0v85.333333h426.666666v-85.333333z m128 149.333333a21.333333 21.333333 0 0 0-21.333333-21.333333H192a21.333333 21.333333 0 0 0-21.333333 21.333333v554.666667a21.333333 21.333333 0 0 0 21.333333 21.333333h640a21.333333 21.333333 0 0 0 21.333333-21.333333V405.333333zM533.333333 634.090667V746.666667a21.333333 21.333333 0 0 1-42.666666 0v-112.576a42.666667 42.666667 0 1 1 42.666666 0z" p-id="1536" fill="#ffb6c1"></path></svg>