<?xml version="1.0" standalone="no"?><!DOCTYPE svg PUBLIC "-//W3C//DTD SVG 1.1//EN" "http://www.w3.org/Graphics/SVG/1.1/DTD/svg11.dtd"><svg t="1608029388327" class="icon" viewBox="0 0 1024 1024" version="1.1" xmlns="http://www.w3.org/2000/svg" p-id="2127" xmlns:xlink="http://www.w3.org/1999/xlink" width="200" height="200"><defs><style type="text/css"></style></defs><path d="M512 42.666667a469.333333 469.333333 0 1 0 469.333333 469.333333A469.333333 469.333333 0 0 0 512 42.666667z m0 874.666666a405.333333 405.333333 0 1 1 405.333333-405.333333 405.333333 405.333333 0 0 1-405.333333 405.333333z" p-id="2128"></path><path d="M757.333333 480h-213.333333v-213.333333a32 32 0 0 0-64 0v213.333333h-213.333333a32 32 0 0 0 0 64h213.333333v213.333333a32 32 0 0 0 64 0v-213.333333h213.333333a32 32 0 0 0 0-64z" p-id="2129"></path></svg>